<svg id="logo_rhizome" data-name="Calque 1" xmlns="http://www.w3.org/2000/svg">
<defs>
    <style>
    .cls-1 {
        fill: #a3b291;
    }
    </style>
</defs>
<path class="cls-1" d="m101.04,18.07C90.67,6.29,75.74,0,57.67,0S24.67,6.13,14.3,17.91C5.03,28.44,0,42.58,0,57.98s5.34,30.48,14.61,41.17c10.53,12.1,25.46,18.38,43.21,18.38s32.68-6.28,43.05-18.38c9.27-10.69,14.61-25.61,14.61-40.86s-5.19-29.86-14.46-40.23Zm-46.37,19.99c-2.53-.17-5.04-.54-7.56-1.14,2.11-2.69,4.63-5.37,7.56-8.03v9.17Zm0,7.07v10.13h-15.52c.36-4.06,1.64-8.11,3.84-12.15,3.89,1.13,7.77,1.8,11.68,2.02Zm0,17.15v10.01c-3.72.13-7.39.65-11,1.57-2.18-3.92-3.58-7.79-4.22-11.58h15.22Zm0,17.03v8.73c-2.62-2.66-4.93-5.3-6.89-7.91,2.27-.45,4.57-.73,6.89-.82Zm7.02.26c2.4.26,4.84.71,7.32,1.34-2.06,2.59-4.5,5.17-7.32,7.73v-9.07Zm0-7.06v-10.23h15.52c-.37,4.18-1.72,8.35-4.05,12.5-3.9-1.15-7.72-1.9-11.48-2.27Zm0-17.26v-10.2c3.52-.28,7.08-.9,10.69-1.9,2.35,4.1,3.86,8.14,4.53,12.1h-15.22Zm0-17.27v-8.49c2.47,2.5,4.66,4.99,6.54,7.45-2.2.5-4.38.84-6.54,1.04Zm2.02-16.33c9.33.84,16.53,3.75,21.68,8.63-3.42,1.83-6.76,3.35-10.02,4.54-3.09-4.38-6.98-8.77-11.66-13.17Zm-23.68,13c-3.07-1.22-6.15-2.75-9.28-4.6,5.2-4.76,12.38-7.63,21.55-8.43-5.01,4.26-9.11,8.6-12.27,13.03Zm-3.72,6.08c-2.46,4.77-3.86,9.61-4.2,14.51h-11.58c.39-7.91,2.27-14.53,5.63-19.76,3.41,2.08,6.79,3.83,10.15,5.24Zm-15.77,21.54h11.8c.62,4.56,2.15,9.16,4.58,13.79-3.71,1.49-7.37,3.4-11,5.75-3.17-5.17-4.95-11.69-5.38-19.54Zm20.08,19.89c3.18,4.6,7.22,9.21,12.14,13.82-9.69-.7-17.11-3.64-22.4-8.68,3.39-2.14,6.8-3.86,10.26-5.15Zm35.49.99c2.94,1.12,5.94,2.47,9.02,4.07-5.07,4.82-12.07,7.73-21.01,8.61,4.87-4.15,8.87-8.38,11.99-12.68Zm3.77-6.05c2.56-4.87,4.02-9.82,4.37-14.83h10.85c-.44,7.74-2.26,14.23-5.45,19.4-3.31-1.78-6.56-3.29-9.76-4.56Zm15.24-21.85h-11.1c-.65-4.75-2.28-9.54-4.87-14.35,3.52-1.37,7.09-3.05,10.75-5.07,3.14,5.15,4.86,11.65,5.23,19.42Z"/>
</svg>